<svg width="48" height="48" viewBox="0 0 48 48" fill="none" xmlns="http://www.w3.org/2000/svg" xmlns:xlink="http://www.w3.org/1999/xlink">
<path d="M6.594,10.468C7.045,8.546 8.546,7.045 10.468,6.594L10.468,6.594C12.133,6.203 13.867,6.203 15.532,6.594L15.532,6.594C17.454,7.045 18.955,8.546 19.406,10.468L19.406,10.468C19.797,12.133 19.797,13.867 19.406,15.532L19.406,15.532C18.955,17.454 17.454,18.955 15.532,19.406L15.532,19.406C13.867,19.797 12.133,19.797 10.468,19.406L10.468,19.406C8.546,18.955 7.045,17.454 6.594,15.532L6.594,15.532C6.203,13.867 6.203,12.133 6.594,10.468L6.594,10.468Z" fill="#757575" fill-opacity="0.15" stroke="#757575" stroke-width="1.5" stroke-miterlimit="3.999327"/>
<path d="M6.594,32.468C7.045,30.546 8.546,29.045 10.468,28.594L10.468,28.594C12.133,28.203 13.867,28.203 15.532,28.594L15.532,28.594C17.454,29.045 18.955,30.546 19.406,32.468L19.406,32.468C19.797,34.133 19.797,35.867 19.406,37.532L19.406,37.532C18.955,39.454 17.454,40.955 15.532,41.406L15.532,41.406C13.867,41.797 12.133,41.797 10.468,41.406L10.468,41.406C8.546,40.955 7.045,39.454 6.594,37.532L6.594,37.532C6.203,35.867 6.203,34.133 6.594,32.468L6.594,32.468Z" fill="#757575" fill-opacity="0.15" stroke="#757575" stroke-width="1.5" stroke-miterlimit="3.999327"/>
<path d="M28.594,10.468C29.045,8.546 30.546,7.045 32.468,6.594L32.468,6.594C34.133,6.203 35.867,6.203 37.532,6.594L37.532,6.594C39.454,7.045 40.955,8.546 41.406,10.468L41.406,10.468C41.797,12.133 41.797,13.867 41.406,15.532L41.406,15.532C40.955,17.454 39.454,18.955 37.532,19.406L37.532,19.406C35.867,19.797 34.133,19.797 32.468,19.406L32.468,19.406C30.546,18.955 29.045,17.454 28.594,15.532L28.594,15.532C28.203,13.867 28.203,12.133 28.594,10.468L28.594,10.468Z" fill="#757575" fill-opacity="0.15" stroke="#757575" stroke-width="1.5" stroke-miterlimit="3.999327"/>
<path d="M28.594,32.468C29.045,30.546 30.546,29.045 32.468,28.594L32.468,28.594C34.133,28.203 35.867,28.203 37.532,28.594L37.532,28.594C39.454,29.045 40.955,30.546 41.406,32.468L41.406,32.468C41.797,34.133 41.797,35.867 41.406,37.532L41.406,37.532C40.955,39.454 39.454,40.955 37.532,41.406L37.532,41.406C35.867,41.797 34.133,41.797 32.468,41.406L32.468,41.406C30.546,40.955 29.045,39.454 28.594,37.532L28.594,37.532C28.203,35.867 28.203,34.133 28.594,32.468L28.594,32.468Z" fill="#757575" fill-opacity="0.15" stroke="#757575" stroke-width="1.5" stroke-miterlimit="3.999327"/>
</svg>
