<svg width="48" height="48" viewBox="0 0 48 48" fill="none" xmlns="http://www.w3.org/2000/svg" xmlns:xlink="http://www.w3.org/1999/xlink">
<path d="M17,22.5C16.172,22.5 15.5,23.172 15.5,24C15.5,24.828 16.172,25.5 17,25.5L17,22.5ZM31,24L32.061,25.061C32.342,24.779 32.5,24.398 32.5,24C32.5,23.602 32.342,23.221 32.061,22.939L31,24ZM27.061,17.939C26.475,17.354 25.525,17.354 24.939,17.939C24.354,18.525 24.354,19.475 24.939,20.061L27.061,17.939ZM24.939,27.939C24.354,28.525 24.354,29.475 24.939,30.061C25.525,30.646 26.475,30.646 27.061,30.061L24.939,27.939ZM17,25.5L31,25.5L31,22.5L17,22.5L17,25.5ZM32.061,22.939L27.061,17.939L24.939,20.061L29.939,25.061L32.061,22.939ZM29.939,22.939L24.939,27.939L27.061,30.061L32.061,25.061L29.939,22.939Z" transform="rotate(360 24 24)" fill="#EA526F"/>
</svg>
